<svg version="1.1" id="Layer_1" xmlns="http://www.w3.org/2000/svg" x="0" y="0" viewBox="0 0 256 144" xml:space="preserve"><style type="text/css">.st0{fill:#f5a623}</style><path class="st0" d="M242.27 0H13.73C6.15 0 0 6.15 0 13.73v116.55C0 137.85 6.15 144 13.73 144h228.55c7.58 0 13.73-6.15 13.73-13.73V13.73C256 6.15 249.85 0 242.27 0zM253 130.27c0 5.91-4.81 10.73-10.73 10.73H13.73C7.81 141 3 136.19 3 130.27V13.73C3 7.81 7.81 3 13.73 3h228.55c5.91 0 10.73 4.81 10.73 10.73L253 130.27z"/><path class="st0" d="M10.5 72h3v16h-3zm7-12c0-3.03-2.47-5.5-5.5-5.5S6.5 56.97 6.5 60s2.47 5.5 5.5 5.5 5.5-2.47 5.5-5.5zM12 62.5a2.5 2.5 0 0 1 0-5 2.5 2.5 0 0 1 0 5z"/><path class="st0" d="M241.76 6.5H14.24c-4.27 0-7.74 3.57-7.74 7.96V49.5h9.08c3.51 0 6.37 2.98 6.37 6.65v31.71c0 3.67-2.86 6.65-6.37 6.65H6.5v35.04c0 4.39 3.47 7.96 7.74 7.96h227.52c4.27 0 7.74-3.57 7.74-7.96V14.46c0-4.39-3.47-7.96-7.74-7.96zm4.74 123.04c0 2.74-2.13 4.96-4.74 4.96H14.24c-2.61 0-4.74-2.23-4.74-4.96V97.5h6.08c5.16 0 9.37-4.33 9.37-9.65V56.14c0-5.32-4.2-9.65-9.37-9.65H9.5V14.46c0-2.74 2.13-4.96 4.74-4.96h227.52c2.61 0 4.74 2.23 4.74 4.96v115.08z"/><path class="st0" d="M66 96.5h-2.5V94c0-4.14-3.36-7.5-7.5-7.5s-7.5 3.36-7.5 7.5v2.5H46c-4.14 0-7.5 3.36-7.5 7.5s3.36 7.5 7.5 7.5h2.5v2.5c0 4.14 3.36 7.5 7.5 7.5s7.5-3.36 7.5-7.5v-2.5H66c4.14 0 7.5-3.36 7.5-7.5s-3.36-7.5-7.5-7.5zm0 12h-5.5v5.5c0 2.48-2.02 4.5-4.5 4.5s-4.5-2.02-4.5-4.5v-5.5H46c-2.48 0-4.5-2.02-4.5-4.5s2.02-4.5 4.5-4.5h5.5V94c0-2.48 2.02-4.5 4.5-4.5s4.5 2.02 4.5 4.5v5.5H66c2.48 0 4.5 2.02 4.5 4.5s-2.02 4.5-4.5 4.5zm150-22c-5.24 0-9.5 4.26-9.5 9.5s4.26 9.5 9.5 9.5 9.5-4.26 9.5-9.5-4.26-9.5-9.5-9.5zm0 16c-3.58 0-6.5-2.92-6.5-6.5s2.92-6.5 6.5-6.5 6.5 2.92 6.5 6.5-2.92 6.5-6.5 6.5zm-24 0c-5.24 0-9.5 4.26-9.5 9.5s4.26 9.5 9.5 9.5 9.5-4.26 9.5-9.5-4.26-9.5-9.5-9.5zm0 16c-3.58 0-6.5-2.92-6.5-6.5s2.92-6.5 6.5-6.5 6.5 2.92 6.5 6.5-2.92 6.5-6.5 6.5zm-79.76-61H136v-3h-14.76l15-5H152v-3h-14.63c-.72-4.53-4.64-8-9.37-8h-7.38l-.35-.35c-4.93-4.93-11.49-7.65-18.46-7.65-4.03 0-8.07.95-11.67 2.76L80 38.32 54.35 25.5H64v-3H28.38l16.69 16.69-6.57 1.64v14.34L45.82 57l-8.25 16.5H72v-3H60.95l19.5-13h31.79zM91.48 35.94c3.19-1.6 6.76-2.44 10.33-2.44 5.28 0 10.29 1.76 14.36 5H86.35l5.13-2.56zM35.62 25.5h12.02l26 13H49.5v-.42l-1.04.26L35.62 25.5zm5.88 27.33v-9.66l5-1.25v12.16l-5-1.25zM55.55 70.5H42.43l6.38-12.75.7.17v-.42h25.55l-19.51 13zm29.4-16H49.5v-13H128c3.23 0 5.91 2.36 6.42 5.45l-22.66 7.55H84.95zm67.05 0h16v3h-16zM217.5 32h-3c0 8-6.5 14.5-14.5 14.5v3c8 0 14.5 6.5 14.5 14.5h3c0-8 6.5-14.5 14.5-14.5v-3c-8 0-14.5-6.5-14.5-14.5zM216 56.91a17.594 17.594 0 0 0-8.91-8.91c3.96-1.76 7.15-4.95 8.91-8.91 1.76 3.96 4.95 7.15 8.91 8.91a17.594 17.594 0 0 0-8.91 8.91zM168 46.5h16v3h-16zm-52 56h-8c-3.03 0-5.5 2.47-5.5 5.5s2.47 5.5 5.5 5.5h8c3.03 0 5.5-2.47 5.5-5.5s-2.47-5.5-5.5-5.5zm0 8h-8a2.5 2.5 0 0 1 0-5h8a2.5 2.5 0 0 1 0 5zm32-8h-8c-3.03 0-5.5 2.47-5.5 5.5s2.47 5.5 5.5 5.5h8c3.03 0 5.5-2.47 5.5-5.5s-2.47-5.5-5.5-5.5zm0 8h-8a2.5 2.5 0 0 1 0-5h8a2.5 2.5 0 0 1 0 5z"/></svg>