<svg height="241" viewBox="0 0 1920 241" width="1920" xmlns="http://www.w3.org/2000/svg"><g fill="#fff" fill-rule="evenodd"><path d="m18.3 240.6c-10.667 0-20.033-2.133-28.1-6.4s-14.333-10.267-18.8-18-6.7-16.667-6.7-26.8v-41c0-10.133 2.233-19.033 6.7-26.7s10.733-13.633 18.8-17.9 17.433-6.4 28.1-6.4c10.533 0 19.867 2.033 28 6.1s14.433 9.633 18.9 16.7 6.7 14.867 6.7 23.4v1c0 .667-.233 1.233-.7 1.7s-1.033.7-1.7.7h-28.4a2.314 2.314 0 0 1 -1.7-.7 2.314 2.314 0 0 1 -.7-1.7c0-5.2-1.833-9.633-5.5-13.3s-8.633-5.5-14.9-5.5c-6.133 0-11.067 2-14.8 6-3.733 4-5.6 9.2-5.6 15.6v43c0 6.4 2.067 11.6 6.2 15.6s9.333 6 15.6 6c5.867 0 10.6-1.567 14.2-4.7s5.4-7.5 5.4-13.1v-5.6c0-.667-.333-1-1-1h-20a2.314 2.314 0 0 1 -1.7-.7 2.314 2.314 0 0 1 -.7-1.7v-22c0-.667.233-1.233.7-1.7a2.314 2.314 0 0 1 1.7-.7h51.2c.667 0 1.233.233 1.7.7s.7 1.033.7 1.7v27.2c0 10-2.233 18.8-6.7 26.4s-10.733 13.467-18.8 17.6-17.433 6.2-28.1 6.2zm158.2-1.6c-1.467 0-2.4-.667-2.8-2l-5.2-17.8c-.267-.533-.6-.8-1-.8h-45.6c-.4 0-.733.267-1 .8l-5.2 17.8c-.4 1.333-1.333 2-2.8 2h-30.6c-.8 0-1.4-.233-1.8-.7s-.467-1.167-.2-2.1l42.8-135.2c.4-1.333 1.267-2 2.6-2h37.8c1.333 0 2.2.667 2.6 2l43 135.2c.133.267.2.6.2 1 0 1.2-.733 1.8-2.2 1.8zm-47.6-47.4c-.133.8.133 1.2.8 1.2h29.8c.8 0 1.067-.4.8-1.2l-15.2-51.4c-.133-.533-.333-.767-.6-.7s-.467.3-.6.7zm184.8-91c.533-1.067 1.467-1.6 2.8-1.6h28.2c.667 0 1.233.233 1.7.7s.7 1.033.7 1.7v135.2c0 .667-.233 1.233-.7 1.7s-1.033.7-1.7.7h-28.4a2.314 2.314 0 0 1 -1.7-.7 2.314 2.314 0 0 1 -.7-1.7v-80.4c0-.533-.133-.8-.4-.8s-.533.2-.8.6l-17.2 27.6c-.533 1.067-1.467 1.6-2.8 1.6h-14.2c-1.333 0-2.267-.533-2.8-1.6l-17.4-27.8c-.267-.4-.533-.6-.8-.6s-.4.267-.4.8v80.6c0 .667-.233 1.233-.7 1.7s-1.033.7-1.7.7h-28.4a2.314 2.314 0 0 1 -1.7-.7 2.314 2.314 0 0 1 -.7-1.7v-135.2c0-.667.233-1.233.7-1.7a2.314 2.314 0 0 1 1.7-.7h28.2c1.2 0 2.133.533 2.8 1.6l27.8 43.6c.4.8.8.8 1.2 0zm55.4 138.4a2.314 2.314 0 0 1 -1.7-.7 2.314 2.314 0 0 1 -.7-1.7v-135.2c0-.667.233-1.233.7-1.7a2.314 2.314 0 0 1 1.7-.7h28.4c.667 0 1.233.233 1.7.7s.7 1.033.7 1.7v135.2c0 .667-.233 1.233-.7 1.7s-1.033.7-1.7.7zm130-137.6c0-.667.233-1.233.7-1.7a2.314 2.314 0 0 1 1.7-.7h28.4c.667 0 1.233.233 1.7.7s.7 1.033.7 1.7v135.2c0 .667-.233 1.233-.7 1.7s-1.033.7-1.7.7h-27.2c-1.333 0-2.267-.533-2.8-1.6l-46-76.4c-.267-.4-.533-.567-.8-.5s-.4.367-.4.9l.2 75.2c0 .667-.233 1.233-.7 1.7s-1.033.7-1.7.7h-28.4a2.314 2.314 0 0 1 -1.7-.7 2.314 2.314 0 0 1 -.7-1.7v-135.2c0-.667.233-1.233.7-1.7a2.314 2.314 0 0 1 1.7-.7h27.4c1.333 0 2.267.533 2.8 1.6l45.8 76.2c.267.4.533.567.8.5s.4-.367.4-.9zm104.4 139.2c-10.667 0-20.033-2.133-28.1-6.4s-14.333-10.267-18.8-18-6.7-16.667-6.7-26.8v-41c0-10.133 2.233-19.033 6.7-26.7s10.733-13.633 18.8-17.9 17.433-6.4 28.1-6.4c10.533 0 19.867 2.033 28 6.1s14.433 9.633 18.9 16.7 6.7 14.867 6.7 23.4v1c0 .667-.233 1.233-.7 1.7s-1.033.7-1.7.7h-28.4a2.314 2.314 0 0 1 -1.7-.7 2.314 2.314 0 0 1 -.7-1.7c0-5.2-1.833-9.633-5.5-13.3s-8.633-5.5-14.9-5.5c-6.133 0-11.067 2-14.8 6s-5.6 9.2-5.6 15.6v43c0 6.4 2.067 11.6 6.2 15.6s9.333 6 15.6 6c5.867 0 10.6-1.567 14.2-4.7s5.4-7.5 5.4-13.1v-5.6c0-.667-.333-1-1-1h-20a2.314 2.314 0 0 1 -1.7-.7 2.314 2.314 0 0 1 -.7-1.7v-22c0-.667.233-1.233.7-1.7a2.314 2.314 0 0 1 1.7-.7h51.2c.667 0 1.233.233 1.7.7s.7 1.033.7 1.7v27.2c0 10-2.233 18.8-6.7 26.4s-10.733 13.467-18.8 17.6-17.433 6.2-28.1 6.2zm210.4-115.6c0 .667-.233 1.233-.7 1.7s-1.033.7-1.7.7h-62.8c-.667 0-1 .333-1 1v24.6c0 .667.333 1 1 1h40.2c.667 0 1.233.233 1.7.7s.7 1.033.7 1.7v23.4c0 .667-.233 1.233-.7 1.7s-1.033.7-1.7.7h-40.2c-.667 0-1 .333-1 1v26.4c0 .667.333 1 1 1h62.8c.667 0 1.233.233 1.7.7s.7 1.033.7 1.7v23.6c0 .667-.233 1.233-.7 1.7s-1.033.7-1.7.7h-94.6a2.314 2.314 0 0 1 -1.7-.7 2.314 2.314 0 0 1 -.7-1.7v-135.2c0-.667.233-1.233.7-1.7a2.314 2.314 0 0 1 1.7-.7h94.6c.667 0 1.233.233 1.7.7s.7 1.033.7 1.7zm54.8 114c-1.333 0-2.2-.667-2.6-2l-40.4-135.2-.2-.8c0-1.333.733-2 2.2-2h30.6c1.467 0 2.4.667 2.8 2l23 91c.133.4.333.6.6.6s.467-.2.6-.6l22.6-91c.4-1.333 1.333-2 2.8-2h30c.8 0 1.4.267 1.8.8.367.489.453 1.09.26 1.803l-41.06 135.397c-.4 1.333-1.267 2-2.6 2zm187.4-114c0 .667-.233 1.233-.7 1.7s-1.033.7-1.7.7h-62.8c-.667 0-1 .333-1 1v24.6c0 .667.333 1 1 1h40.2c.667 0 1.233.233 1.7.7s.7 1.033.7 1.7v23.4c0 .667-.233 1.233-.7 1.7s-1.033.7-1.7.7h-40.2c-.667 0-1 .333-1 1v26.4c0 .667.333 1 1 1h62.8c.667 0 1.233.233 1.7.7s.7 1.033.7 1.7v23.6c0 .667-.233 1.233-.7 1.7s-1.033.7-1.7.7h-94.6a2.314 2.314 0 0 1 -1.7-.7 2.314 2.314 0 0 1 -.7-1.7v-135.2c0-.667.233-1.233.7-1.7a2.314 2.314 0 0 1 1.7-.7h94.6c.667 0 1.233.233 1.7.7s.7 1.033.7 1.7zm91 114c-1.333 0-2.267-.6-2.8-1.8l-23.6-53.2c-.267-.533-.667-.8-1.2-.8h-13.2c-.667 0-1 .333-1 1v52.4c0 .667-.233 1.233-.7 1.7s-1.033.7-1.7.7h-28.4a2.314 2.314 0 0 1 -1.7-.7 2.314 2.314 0 0 1 -.7-1.7v-135.2c0-.667.233-1.233.7-1.7a2.314 2.314 0 0 1 1.7-.7h59.4c8.8 0 16.533 1.8 23.2 5.4s11.833 8.7 15.5 15.3 5.5 14.167 5.5 22.7c0 8.933-2.2 16.667-6.6 23.2s-10.533 11.267-18.4 14.2c-.667.267-.867.733-.6 1.4l26.4 55c.267.533.4.933.4 1.2 0 1.067-.733 1.6-2.2 1.6zm-40.8-111.6c-.667 0-1 .333-1 1v28.4c0 .667.333 1 1 1h22.2c4.933 0 8.933-1.367 12-4.1s4.6-6.367 4.6-10.9c0-4.667-1.533-8.4-4.6-11.2s-7.067-4.2-12-4.2zm121 111.2a2.314 2.314 0 0 1 -1.7-.7 2.314 2.314 0 0 1 -.7-1.7v-47.4c0-.533-.067-.933-.2-1.2l-41-85.8c-.267-.533-.4-.933-.4-1.2 0-1.067.733-1.6 2.2-1.6h30.8c1.333 0 2.267.6 2.8 1.8l21.8 50.6c.4.8.8.8 1.2 0l22-50.6c.533-1.2 1.467-1.8 2.8-1.8h31c.933 0 1.567.233 1.9.7s.3 1.167-.1 2.1l-41.6 85.8c-.133.267-.2.667-.2 1.2v47.4c0 .667-.233 1.233-.7 1.7s-1.033.7-1.7.7zm122.4.4c-1.467 0-2.4-.667-2.8-2l-37.2-135.4-.2-.8c0-1.2.733-1.8 2.2-1.8h30.4c1.333 0 2.2.667 2.6 2l17.4 72.8c.133.533.333.8.6.8s.467-.267.6-.8l15.6-72.6c.267-1.467 1.133-2.2 2.6-2.2h27.8c1.333 0 2.2.667 2.6 2l17.4 72.8c.133.533.333.8.6.8s.467-.267.6-.8l16.2-72.6c.267-1.467 1.133-2.2 2.6-2.2h29.6c1.867 0 2.6.867 2.2 2.6l-33.8 135.4c-.4 1.333-1.333 2-2.8 2h-28.6c-1.467 0-2.333-.733-2.6-2.2l-17.4-77.2c-.133-.533-.333-.8-.6-.8s-.467.267-.6.8l-15.6 77.2c-.267 1.467-1.133 2.2-2.6 2.2zm218.2-137.6c0-.667.233-1.233.7-1.7a2.314 2.314 0 0 1 1.7-.7h28.4c.667 0 1.233.233 1.7.7s.7 1.033.7 1.7v135.2c0 .667-.233 1.233-.7 1.7s-1.033.7-1.7.7h-28.4a2.314 2.314 0 0 1 -1.7-.7 2.314 2.314 0 0 1 -.7-1.7v-53.2c0-.667-.333-1-1-1h-37.4c-.667 0-1 .333-1 1v53.2c0 .667-.233 1.233-.7 1.7s-1.033.7-1.7.7h-28.4a2.314 2.314 0 0 1 -1.7-.7 2.314 2.314 0 0 1 -.7-1.7v-135.2c0-.667.233-1.233.7-1.7a2.314 2.314 0 0 1 1.7-.7h28.4c.667 0 1.233.233 1.7.7s.7 1.033.7 1.7v51.6c0 .667.333 1 1 1h37.4c.667 0 1-.333 1-1zm150.6 23.6c0 .667-.233 1.233-.7 1.7s-1.033.7-1.7.7h-62.8c-.667 0-1 .333-1 1v24.6c0 .667.333 1 1 1h40.2c.667 0 1.233.233 1.7.7s.7 1.033.7 1.7v23.4c0 .667-.233 1.233-.7 1.7s-1.033.7-1.7.7h-40.2c-.667 0-1 .333-1 1v26.4c0 .667.333 1 1 1h62.8c.667 0 1.233.233 1.7.7s.7 1.033.7 1.7v23.6c0 .667-.233 1.233-.7 1.7s-1.033.7-1.7.7h-94.6a2.314 2.314 0 0 1 -1.7-.7 2.314 2.314 0 0 1 -.7-1.7v-135.2c0-.667.233-1.233.7-1.7a2.314 2.314 0 0 1 1.7-.7h94.6c.667 0 1.233.233 1.7.7s.7 1.033.7 1.7zm91 114c-1.333 0-2.267-.6-2.8-1.8l-23.6-53.2c-.267-.533-.667-.8-1.2-.8h-13.2c-.667 0-1 .333-1 1v52.4c0 .667-.233 1.233-.7 1.7s-1.033.7-1.7.7h-28.4a2.314 2.314 0 0 1 -1.7-.7 2.314 2.314 0 0 1 -.7-1.7v-135.2c0-.667.233-1.233.7-1.7a2.314 2.314 0 0 1 1.7-.7h59.4c8.8 0 16.533 1.8 23.2 5.4s11.833 8.7 15.5 15.3 5.5 14.167 5.5 22.7c0 8.933-2.2 16.667-6.6 23.2s-10.533 11.267-18.4 14.2c-.667.267-.867.733-.6 1.4l26.4 55c.267.533.4.933.4 1.2 0 1.067-.733 1.6-2.2 1.6zm-40.8-111.6c-.667 0-1 .333-1 1v28.4c0 .667.333 1 1 1h22.2c4.933 0 8.933-1.367 12-4.1s4.6-6.367 4.6-10.9c0-4.667-1.533-8.4-4.6-11.2s-7.067-4.2-12-4.2zm188-2.4c0 .667-.233 1.233-.7 1.7s-1.033.7-1.7.7h-62.8c-.667 0-1 .333-1 1v24.6c0 .667.333 1 1 1h40.2c.667 0 1.233.233 1.7.7s.7 1.033.7 1.7v23.4c0 .667-.233 1.233-.7 1.7s-1.033.7-1.7.7h-40.2c-.667 0-1 .333-1 1v26.4c0 .667.333 1 1 1h62.8c.667 0 1.233.233 1.7.7s.7 1.033.7 1.7v23.6c0 .667-.233 1.233-.7 1.7s-1.033.7-1.7.7h-94.6a2.314 2.314 0 0 1 -1.7-.7 2.314 2.314 0 0 1 -.7-1.7v-135.2c0-.667.233-1.233.7-1.7a2.314 2.314 0 0 1 1.7-.7h94.6c.667 0 1.233.233 1.7.7s.7 1.033.7 1.7z" fill-rule="nonzero"/><path d="m12.857 32 17.143 30-5.714 10h-11.429l-22.857-40zm44.143-32 6 10.4-24 41.6-12-20.8 18-31.2zm-26 0-11.555 20h-34.667l-5.778-10 5.778-10z"/></g></svg>