<svg height="18" viewBox="0 0 126 18" width="126" xmlns="http://www.w3.org/2000/svg"><path d="m1.444 0h11.556l-2.889 5h-8.667l-1.444-2.5zm1.556 8h5.714l4.286 7.5-1.429 2.5h-2.857zm13.5-8h3l1.5 2.6-6 10.4-3-5.2zm28.574 3.577h4.077l-6.958 11.423h-3.235l-6.958-11.423h4.232l4.432 7.88zm15.089 8.632c1.174 0 1.551-.344 1.551-1.482v-2.877c0-1.138-.377-1.482-1.551-1.482h-5.185c-1.175 0-1.552.344-1.552 1.482v2.877c0 1.138.377 1.482 1.552 1.482zm-6.56 2.79c-2.725 0-3.855-1.073-3.855-3.735v-3.951c0-2.663 1.13-3.736 3.856-3.736h7.933c2.725 0 3.856 1.073 3.856 3.736v3.95c0 2.663-1.13 3.737-3.856 3.737h-7.933zm24.267-11.421v2.752h-3.723c-.997 0-1.75.215-2.305.623l-.686.515v7.532h-3.679v-11.423h2.66l.398 1.61.089-.064c.775-.666 1.462-1.074 2.038-1.267.554-.193 1.419-.28 2.549-.28h2.659zm13.56 2.726h-6.116v4.702c0 .88.333 1.202 1.241 1.202h4.875v2.792h-6.47c-2.283 0-3.324-.988-3.324-3.22v-5.477h-2.073v-2.726h2.073l.732-2.577h2.947v2.577h6.116v2.727zm5.252 1.608h8.177v-.362c0-1.138-.377-1.481-1.551-1.481h-5.075c-1.174 0-1.55.343-1.55 1.481v.363zm7.889-4.335c2.725 0 3.856 1.073 3.856 3.736v2.852h-11.744v.796c0 1.139.377 1.333 1.551 1.333h5.385c.908 0 1.24-.173 1.24-1.053v-.152h3.569v.69c0 2.233-1.042 3.22-3.324 3.22h-8.266c-2.726 0-3.856-1.073-3.856-3.735v-3.951c0-2.663 1.13-3.736 3.856-3.736h7.734zm4.167 11.423 6.005-5.819-5.784-5.604h4.986l3.546 3.65 3.545-3.65h4.742l-5.761 5.604 5.983 5.819h-4.986l-3.745-3.887-3.767 3.887z" fill="#fff" fill-rule="evenodd"/></svg>