<svg height="790" viewBox="0 0 676 790" width="676" xmlns="http://www.w3.org/2000/svg"><g fill="none" fill-rule="evenodd" stroke="#fff" stroke-width="2"><path d="m898.58-319.996h259.692l-637.03 1108.466h-129.844l-64.923-112.45z"/><path d="m506.808 763.47 608.162-1058.464h-201.955l-557.674 971.016 50.49 87.449z"/><path d="m492.375 738.47 579.295-1008.464h-144.221l-543.24 946.017 36.056 62.449z"/><path d="m477.941 713.47 550.427-958.465h-86.486l-528.805 921.017 21.621 37.449z"/><path d="m463.507 688.47 521.56-908.465h-28.75l-514.373 896.017 7.187 12.449zm-461.646-574.696 64.923-112.45h129.845l194.768 337.349-129.846 224.899z"/><path d="m362.529 338.673-180.334-312.348h-100.978l-50.49 87.45 230.824 399.797z"/><path d="m333.662 338.673-165.9-287.348h-72.112l-36.055 62.45 201.956 349.797z"/><path d="m304.795 338.673-151.467-262.348h-43.243l-21.621 37.45 173.088 299.797z"/><path d="m275.927 338.673-137.033-237.348h-14.376l-7.188 12.45 144.221 249.797z"/></g></svg>